<?xml version="1.0" encoding="utf-8"?>
<!-- Generator: Adobe Illustrator 24.0.0, SVG Export Plug-In . SVG Version: 6.00 Build 0)  -->
<svg version="1.1" id="Layer_1" xmlns="http://www.w3.org/2000/svg" xmlns:xlink="http://www.w3.org/1999/xlink" x="0px" y="0px"
	 viewBox="0 0 512 512" style="enable-background:new 0 0 512 512;" xml:space="preserve">
<style type="text/css">
	.st0{fill:#FFFFFF;}
</style>
<path class="st0" d="M165,331L165,331C165,331,165,331,165,331l272,0c6.7,0,12.6-4.4,14.4-10.9l60-210c1.3-4.5,0.4-9.4-2.4-13.2
	c-2.8-3.8-7.3-6-12-6H130.4l-10.7-48.3C118.1,35.9,112,31,105,31H15C6.7,31,0,37.7,0,46s6.7,15,15,15h78
	c1.9,8.6,51.3,230.9,54.2,243.7c-15.9,6.9-27.1,22.8-27.1,41.3c0,24.8,20.2,45,45,45h272c8.3,0,15-6.7,15-15s-6.7-15-15-15H165
	c-8.3,0-15-6.7-15-15C150,337.7,156.7,331,165,331z M477.1,121l-51.4,180H177l-40-180H477.1z"/>
<path class="st0" d="M150,436c0,24.8,20.2,45,45,45s45-20.2,45-45s-20.2-45-45-45S150,411.2,150,436z M195,421c8.3,0,15,6.7,15,15
	s-6.7,15-15,15s-15-6.7-15-15S186.7,421,195,421z"/>
<path class="st0" d="M362,436c0,24.8,20.2,45,45,45s45-20.2,45-45s-20.2-45-45-45S362,411.2,362,436z M407,421c8.3,0,15,6.7,15,15
	s-6.7,15-15,15s-15-6.7-15-15S398.7,421,407,421z"/>
</svg>
