<?xml version="1.0" encoding="utf-8"?>
<!-- Generator: Adobe Illustrator 24.0.0, SVG Export Plug-In . SVG Version: 6.00 Build 0)  -->
<svg version="1.1" id="Capa_1" xmlns="http://www.w3.org/2000/svg" xmlns:xlink="http://www.w3.org/1999/xlink" x="0px" y="0px"
	 viewBox="0 0 512 512" style="enable-background:new 0 0 512 512;" xml:space="preserve">
<style type="text/css">
	.st0{fill:#FFFFFF;}
</style>
<g>
	<g>
		<path class="st0" d="M507.4,23.4c-3.3-2.4-7.8-2.6-11.5-0.5L90.6,257.6c-3.6,2.1-5.7,6.1-5.2,10.3c0.4,4.2,3.2,7.7,7.2,9l122.9,41
			l41,122.9c1.5,4.4,5.6,7.3,10.1,7.3c0.2,0,0.4,0,0.6,0c4.8-0.3,8.9-3.8,9.8-8.6l18.8-93.8l137.3,58.8c3,1.3,6.4,1.1,9.3-0.4
			c2.9-1.6,4.9-4.3,5.4-7.5l64-362.7C512.5,29.9,510.8,25.8,507.4,23.4z M429.1,379.6l-137-58.7c-3-1.3-6.3-1.2-9.2,0.4
			c-2.9,1.5-4.9,4.2-5.5,7.3L264,395.9l-30-89.9c-1-3.2-3.6-5.7-6.7-6.7l-105.5-35.2l365-211.3L429.1,379.6z"/>
	</g>
</g>
<g>
	<g>
		<path class="st0" d="M508.2,24c-4.2-3.6-10.5-3.3-14.4,0.6L216.4,301.9c-4.2,4.2-4.2,10.9,0,15.1s10.9,4.2,15.1,0l186.2-186.2
			L279.3,324.6c-3.4,4.8-2.3,11.5,2.5,14.9c1.9,1.3,4.1,2,6.2,2c3.3,0,6.6-1.6,8.7-4.5L510,38.3C513.2,33.8,512.4,27.6,508.2,24z"/>
	</g>
</g>
<g>
	<g>
		<path class="st0" d="M337,343.6c-4.7-3.5-11.4-2.6-14.9,2.1l-64,85.3c-3.5,4.7-2.6,11.4,2.2,14.9c1.9,1.4,4.2,2.1,6.4,2.1
			c3.2,0,6.4-1.5,8.5-4.3l64-85.3C342.7,353.8,341.7,347.1,337,343.6z"/>
	</g>
</g>
<g>
	<g>
		<path class="st0" d="M33.3,401.7c-5.1-4.7-10.1-9.5-15.1-14.5c-4.2-4.1-10.9-4.2-15.1,0c-4.2,4.2-4.2,10.9,0,15.1
			c5.2,5.2,10.4,10.2,15.7,15.1c2.1,1.9,4.7,2.8,7.2,2.8c2.9,0,5.7-1.2,7.9-3.4C37.9,412.4,37.6,405.7,33.3,401.7z"/>
	</g>
</g>
<g>
	<g>
		<g>
			<path class="st0" d="M99.9,450c-9.2-4.7-18.6-10.5-27.9-17c-4.8-3.3-11.5-2.2-14.8,2.7c-3.4,4.8-2.2,11.5,2.7,14.8
				c10.2,7,20.3,13.2,30.3,18.4c1.6,0.8,3.2,1.2,4.9,1.2c3.9,0,7.6-2.1,9.5-5.7C107.1,459.2,105.1,452.7,99.9,450z"/>
			<path class="st0" d="M176.3,469.1l-4.8,0.1c0,0-0.1,0-0.1,0c-8.6,0-17.5-0.9-26.4-2.7c-5.7-1.1-11.4,2.5-12.6,8.3
				c-1.2,5.8,2.5,11.4,8.3,12.6c10.3,2.1,20.6,3.2,30.7,3.2c0,0,0.1,0,0.1,0l5.6-0.1c5.9-0.2,10.5-5.2,10.3-11.1
				C187.2,473.5,183.2,468.7,176.3,469.1z"/>
		</g>
	</g>
</g>
<g>
	<g>
		<path class="st0" d="M254.5,453.4c-3-5.1-9.6-6.8-14.6-3.8c-6,3.5-11.9,6.5-17.9,9c-5.4,2.3-7.9,8.6-5.6,14c1.7,4,5.7,6.5,9.8,6.5
			c1.4,0,2.8-0.3,4.2-0.8c6.9-2.9,13.7-6.4,20.3-10.3C255.8,465,257.5,458.4,254.5,453.4z"/>
	</g>
</g>
</svg>
