<svg xmlns="http://www.w3.org/2000/svg" width="30" height="30" viewBox="0 0 30 30"><title>icon - add custom 2</title><desc>Created with Sketch.</desc><g fill="none" fill-rule="evenodd"><g stroke="#95A7B7"><g><g><g><g><path stroke-dasharray="3" fill="#fff" d="M0 0h30v30H0z"/><path d="M21.18 8H16.74c-.484 0-.948.192-1.29.535L8.24 15.74c-.32.323-.32.84.002 1.158l4.86 4.86c.316.322.835.322 1.157 0l7.205-7.205c.343-.343.535-.808.535-1.29V8.818c0-.454-.367-.82-.82-.82zm-2.528 4.837c-.822 0-1.49-.667-1.49-1.49 0-.822.668-1.49 1.49-1.49s1.49.668 1.49 1.49c0 .823-.668 1.49-1.49 1.49z"/></g></g></g></g></g></g></svg>