<svg xmlns="http://www.w3.org/2000/svg" viewBox="7 -7 30 30" enable-background="new 7 -7 30 30"><title>icon - add customer</title><desc>Created with Sketch.</desc><g><g><g><g><g><g><g><g><circle fill="#fff" cx="-728" cy="-73.9" r="14.8" transform="translate(0 0)"/></g></g></g></g></g><g><g><g><g transform="translate(0 0)" fill="none" stroke="#95A7B7"><circle stroke-dasharray="4" cx="22" cy="8.1" r="14.4"/><path stroke-linecap="round" d="M32.8 17.4v-.5c0-3-3.5-4.4-5.8-5.2l-.9-.3c-.9-.4-.9-.8-.9-1.3 0-.2.3-.7.9-1.2C27.3 7.8 28 6.2 28 4.6 28 1.4 25.5-1 22.3-1c-.5 0-1 .1-1.5.2-2.4.6-4.2 2.9-4.2 5.5 0 1.8.6 3.2 1.8 4.3.6.6.9 1.1 1 1.3 0 .4 0 .9-1 1.3-.3.1-.5.2-.8.3-2.3.9-5.7 2.2-5.7 5.3v1.3"/></g></g></g></g></g></g></g></svg>